<svg width="475" height="82" viewBox="0 0 475 82" fill="none" xmlns="http://www.w3.org/2000/svg">
<path d="M82 54.0517V0H28.4788L0 27.3333H54.6667V82L82 54.0517Z" fill="#6E3AFF"/>
<path d="M114 65.0495V16.1113H133.645C138.725 16.1113 142.594 17.2998 145.251 19.6768C147.954 22.0072 149.305 25.0134 149.305 28.6954C149.305 31.7716 148.466 34.2418 146.789 36.1061C145.157 37.9238 143.153 39.1589 140.776 39.8114C143.573 40.3707 145.88 41.7689 147.697 44.0061C149.515 46.1967 150.424 48.7601 150.424 51.6964C150.424 55.5648 149.026 58.7575 146.229 61.2743C143.433 63.7911 139.471 65.0495 134.344 65.0495H114ZM122.949 36.6654H132.317C134.834 36.6654 136.768 36.0828 138.12 34.9176C139.471 33.7524 140.147 32.0978 140.147 29.9538C140.147 27.9031 139.471 26.2951 138.12 25.1299C136.815 23.9181 134.834 23.3122 132.177 23.3122H122.949V36.6654ZM122.949 57.7787H132.946C135.603 57.7787 137.653 57.1728 139.098 55.961C140.59 54.7026 141.335 52.9548 141.335 50.7176C141.335 48.4338 140.566 46.6394 139.028 45.3344C137.49 44.0294 135.416 43.3769 132.806 43.3769H122.949V57.7787Z" fill="white"/>
<path d="M174.534 65.8885C171.178 65.8885 168.148 65.1194 165.445 63.5814C162.789 62.0433 160.668 59.9227 159.083 57.2194C157.545 54.4696 156.776 51.3002 156.776 47.7114C156.776 44.1226 157.568 40.9766 159.153 38.2733C160.738 35.5235 162.858 33.3795 165.515 31.8415C168.218 30.3034 171.248 29.5344 174.604 29.5344C177.913 29.5344 180.896 30.3034 183.552 31.8415C186.256 33.3795 188.376 35.5235 189.914 38.2733C191.499 40.9766 192.291 44.1226 192.291 47.7114C192.291 51.3002 191.499 54.4696 189.914 57.2194C188.376 59.9227 186.256 62.0433 183.552 63.5814C180.849 65.1194 177.843 65.8885 174.534 65.8885ZM174.534 58.1283C176.864 58.1283 178.892 57.266 180.616 55.5415C182.341 53.7704 183.203 51.1604 183.203 47.7114C183.203 44.2624 182.341 41.6757 180.616 39.9512C178.892 38.1801 176.887 37.2946 174.604 37.2946C172.227 37.2946 170.176 38.1801 168.451 39.9512C166.774 41.6757 165.935 44.2624 165.935 47.7114C165.935 51.1604 166.774 53.7704 168.451 55.5415C170.176 57.266 172.203 58.1283 174.534 58.1283Z" fill="white"/>
<path d="M200.292 65.0495V30.3733H208.262L209.101 36.8751C210.36 34.6379 212.061 32.8668 214.205 31.5618C216.395 30.2102 218.959 29.5344 221.895 29.5344V38.9725H219.378C217.421 38.9725 215.673 39.2754 214.135 39.8813C212.597 40.4872 211.385 41.5359 210.499 43.0273C209.661 44.5188 209.241 46.5928 209.241 49.2495V65.0495H200.292Z" fill="white"/>
<path d="M242.343 65.8885C239.267 65.8885 236.564 65.3991 234.233 64.4203C231.903 63.3949 230.039 61.9967 228.64 60.2256C227.242 58.4545 226.403 56.4038 226.124 54.0734H235.142C235.422 55.425 236.168 56.5902 237.379 57.569C238.638 58.5011 240.246 58.9672 242.203 58.9672C244.161 58.9672 245.582 58.571 246.468 57.7787C247.4 56.9864 247.866 56.0775 247.866 55.0521C247.866 53.5607 247.214 52.5586 245.909 52.0459C244.604 51.4866 242.786 50.9507 240.456 50.438C238.964 50.1117 237.449 49.7156 235.911 49.2495C234.373 48.7834 232.952 48.2008 231.647 47.5017C230.388 46.756 229.363 45.8238 228.571 44.7052C227.778 43.54 227.382 42.1185 227.382 40.4406C227.382 37.3645 228.594 34.7778 231.017 32.6804C233.488 30.5831 236.937 29.5344 241.364 29.5344C245.466 29.5344 248.728 30.4898 251.152 32.4008C253.622 34.3117 255.09 36.945 255.556 40.3008H247.097C246.584 37.7374 244.65 36.4556 241.294 36.4556C239.617 36.4556 238.312 36.7819 237.379 37.4344C236.494 38.0869 236.051 38.9025 236.051 39.8813C236.051 40.9067 236.727 41.7223 238.079 42.3282C239.43 42.9341 241.225 43.4934 243.462 44.0061C245.885 44.5654 248.099 45.1946 250.103 45.8937C252.154 46.5462 253.785 47.5483 254.997 48.8999C256.209 50.2049 256.815 52.0925 256.815 54.5628C256.861 56.7067 256.302 58.6409 255.137 60.3654C253.972 62.0899 252.294 63.4416 250.103 64.4203C247.913 65.3991 245.326 65.8885 242.343 65.8885Z" fill="white"/>
<path d="M276.697 65.8885C273.714 65.8885 271.267 65.4224 269.356 64.4902C267.445 63.5115 266.024 62.2297 265.092 60.6451C264.16 59.0604 263.694 57.3126 263.694 55.4017C263.694 52.1858 264.952 49.5757 267.469 47.5716C269.986 45.5675 273.761 44.5654 278.794 44.5654H287.603V43.7265C287.603 41.3495 286.927 39.6017 285.576 38.4831C284.224 37.3645 282.546 36.8052 280.542 36.8052C278.725 36.8052 277.14 37.248 275.788 38.1335C274.437 38.9725 273.598 40.2309 273.271 41.9087H264.532C264.765 39.3919 265.604 37.2014 267.049 35.337C268.541 33.4727 270.452 32.0512 272.782 31.0724C275.112 30.0471 277.722 29.5344 280.612 29.5344C285.553 29.5344 289.444 30.7695 292.287 33.2397C295.13 35.7099 296.552 39.2055 296.552 43.7265V65.0495H288.932L288.093 59.4566C287.067 61.3209 285.622 62.859 283.758 64.0708C281.94 65.2826 279.587 65.8885 276.697 65.8885ZM278.725 58.8973C281.288 58.8973 283.269 58.0583 284.667 56.3805C286.112 54.7026 287.021 52.6285 287.394 50.1583H279.773C277.396 50.1583 275.695 50.6011 274.67 51.4866C273.644 52.3256 273.132 53.3743 273.132 54.6327C273.132 55.9843 273.644 57.033 274.67 57.7787C275.695 58.5244 277.047 58.8973 278.725 58.8973Z" fill="white"/>
<path d="M321.96 65.0495V16.1113H330.909V36.4556H352.861V16.1113H361.81V65.0495H352.861V43.7265H330.909V65.0495H321.96Z" fill="white"/>
<path d="M387.96 65.8885C384.465 65.8885 381.365 65.1427 378.662 63.6513C375.959 62.1598 373.838 60.0625 372.3 57.3592C370.762 54.656 369.993 51.5333 369.993 47.9911C369.993 44.4023 370.739 41.2096 372.23 38.4132C373.768 35.6167 375.866 33.4494 378.522 31.9114C381.226 30.3267 384.395 29.5344 388.03 29.5344C391.433 29.5344 394.439 30.2801 397.049 31.7716C399.659 33.263 401.686 35.3137 403.131 37.9238C404.623 40.4872 405.368 43.3536 405.368 46.5229C405.368 47.0356 405.345 47.5716 405.299 48.1309C405.299 48.6902 405.275 49.2728 405.229 49.8787H378.872C379.058 52.5819 379.991 54.7026 381.668 56.2406C383.393 57.7787 385.467 58.5477 387.891 58.5477C389.708 58.5477 391.223 58.1516 392.435 57.3592C393.693 56.5203 394.625 55.4483 395.231 54.1433H404.32C403.667 56.3339 402.572 58.338 401.034 60.1557C399.542 61.9268 397.678 63.325 395.441 64.3504C393.25 65.3758 390.757 65.8885 387.96 65.8885ZM388.03 36.8052C385.84 36.8052 383.906 37.4344 382.228 38.6928C380.55 39.9046 379.478 41.7689 379.012 44.2857H396.28C396.14 42.002 395.301 40.1843 393.763 38.8326C392.225 37.481 390.314 36.8052 388.03 36.8052Z" fill="white"/>
<path d="M412.895 65.0495V30.3733H420.865L421.704 36.8751C422.962 34.6379 424.663 32.8668 426.807 31.5618C428.998 30.2102 431.561 29.5344 434.498 29.5344V38.9725H431.981C430.023 38.9725 428.275 39.2754 426.737 39.8813C425.199 40.4872 423.988 41.5359 423.102 43.0273C422.263 44.5188 421.844 46.5928 421.844 49.2495V65.0495H412.895Z" fill="white"/>
<path d="M456.638 65.8885C453.283 65.8885 450.253 65.1194 447.55 63.5814C444.893 62.0433 442.772 59.9227 441.188 57.2194C439.65 54.4696 438.881 51.3002 438.881 47.7114C438.881 44.1226 439.673 40.9766 441.258 38.2733C442.842 35.5235 444.963 33.3795 447.62 31.8415C450.323 30.3034 453.352 29.5344 456.708 29.5344C460.017 29.5344 463 30.3034 465.657 31.8415C468.36 33.3795 470.481 35.5235 472.019 38.2733C473.604 40.9766 474.396 44.1226 474.396 47.7114C474.396 51.3002 473.604 54.4696 472.019 57.2194C470.481 59.9227 468.36 62.0433 465.657 63.5814C462.954 65.1194 459.947 65.8885 456.638 65.8885ZM456.638 58.1283C458.969 58.1283 460.996 57.266 462.721 55.5415C464.445 53.7704 465.307 51.1604 465.307 47.7114C465.307 44.2624 464.445 41.6757 462.721 39.9512C460.996 38.1801 458.992 37.2946 456.708 37.2946C454.331 37.2946 452.28 38.1801 450.556 39.9512C448.878 41.6757 448.039 44.2624 448.039 47.7114C448.039 51.1604 448.878 53.7704 450.556 55.5415C452.28 57.266 454.308 58.1283 456.638 58.1283Z" fill="white"/>
</svg>
