<svg width="24" height="24" viewBox="0 0 24 24" fill="none" xmlns="http://www.w3.org/2000/svg">
<path d="M18 12.0226L11.7815 18.6202C10.9183 19.5126 9.7585 20.0082 8.55333 19.9999C7.34816 19.9916 6.19458 19.4799 5.34237 18.5758C4.49017 17.6716 4.00794 16.4477 4.0001 15.1691C3.99225 13.8904 4.45943 12.66 5.30047 11.7441L11.7048 4.94939C12.2777 4.34151 13.0548 4 13.8651 4C14.6754 4 15.4525 4.34151 16.0255 4.94939C16.5984 5.55728 16.9203 6.38175 16.9203 7.24143C16.9203 8.10111 16.5984 8.92558 16.0255 9.53347L9.80585 16.1322C9.51937 16.4362 9.13082 16.6069 8.72568 16.6069C8.32054 16.6069 7.93199 16.4362 7.64552 16.1322C7.35904 15.8283 7.1981 15.4161 7.1981 14.9862C7.1981 14.5564 7.35904 14.1441 7.64552 13.8402L13.6793 7.43854" stroke="white"/>
</svg>
