<svg width="20" height="20" viewBox="0 0 20 20" fill="none" xmlns="http://www.w3.org/2000/svg">
<g clip-path="url(#clip0_1820_21104)">
<path d="M16.6561 9.82806L14.949 10.939M9.828 14.272V17M9.828 14.272L11.535 13.161M9.828 14.272L8.12099 13.161M2.99995 9.82806L4.70696 10.939M6.41398 12.05L5 14.5M6.41398 12.05L4.70696 10.939M6.41398 12.05L8.12099 13.161M13.242 12.05L14.5 14.5M13.242 12.05L14.949 10.939M13.242 12.05L11.535 13.161M4.70696 10.939L2.64599 13M14.949 10.939L17.01 13M11.535 13.161L12.5 16M8.12099 13.161L7.5 16" stroke="white"/>
</g>
<defs>
<clipPath id="clip0_1820_21104">
<rect width="20" height="20" fill="white"/>
</clipPath>
</defs>
</svg>
