<svg width="24" height="24" viewBox="0 0 24 24" fill="none" xmlns="http://www.w3.org/2000/svg">
<path d="M7 17.6L17 7.60001" stroke="white"/>
<path fill-rule="evenodd" clip-rule="evenodd" d="M14.3734 8.21239C14.0435 7.21759 13.1055 6.5 12 6.5C10.6193 6.5 9.5 7.61929 9.5 9V13C9.5 13.0282 9.50047 13.0564 9.5014 13.0844L10.5 12.0858V9C10.5 8.17157 11.1716 7.5 12 7.5C12.8284 7.5 13.5 8.17157 13.5 9V9.0858L14.3734 8.21239ZM10.5643 13.4357C10.751 14.0517 11.3231 14.5 12 14.5C12.8284 14.5 13.5 13.8284 13.5 13V10.5L14.5 9.50001V13C14.5 14.3807 13.3807 15.5 12 15.5C11.0525 15.5 10.2281 14.9729 9.80408 14.1959L10.5643 13.4357ZM8.17092 14.4149C8.09813 14.2412 8.03483 14.0586 7.982 13.867L7.01801 14.133C7.12073 14.5053 7.25537 14.8506 7.4172 15.1686L8.17092 14.4149ZM7.97055 16.0295L8.6861 15.3139C10.5503 17.7786 14.786 17.4369 15.9307 14.1171L16.0273 13.837L16.9727 14.163L16.8761 14.4431C15.4724 18.5139 10.3212 18.9741 7.97055 16.0295Z" fill="white"/>
</svg>
