<svg width="24" height="24" viewBox="0 0 24 24" fill="none" xmlns="http://www.w3.org/2000/svg">
<path d="M5 14V7.05263C5 6.71762 5.1317 6.39633 5.36612 6.15944C5.60054 5.92256 5.91848 5.78947 6.25 5.78947C6.58152 5.78947 6.89946 5.92256 7.13388 6.15944C7.3683 6.39633 7.5 6.71762 7.5 7.05263V11.4737V4.52632C7.5 4.19131 7.6317 3.87002 7.86612 3.63313C8.10054 3.39624 8.41848 3.26316 8.75 3.26316C9.08152 3.26316 9.39946 3.39624 9.63388 3.63313C9.8683 3.87002 10 4.19131 10 4.52632V10.8421V3.26316C10 2.92815 10.1317 2.60686 10.3661 2.36997C10.6005 2.13308 10.9185 2 11.25 2C11.5815 2 11.8995 2.13308 12.1339 2.36997C12.3683 2.60686 12.5 2.92815 12.5 3.26316V10.8421M12.5 10.8816V5.15789C12.5 4.82288 12.6317 4.5016 12.8661 4.26471C13.1005 4.02782 13.4185 3.89474 13.75 3.89474C14.0815 3.89474 14.3995 4.02782 14.6339 4.26471C14.8683 4.5016 15 4.82288 15 5.15789V14" stroke="white" stroke-linecap="round" stroke-linejoin="round"/>
<path d="M5 14.0867C5 18.6982 7.54517 21 11.0448 21C14.5444 21 15.9645 19.4445 16.7714 17.5433L18.8676 11.887C19.1324 11.178 19.0123 10.5204 18.3955 10.1744C17.7783 9.82793 16.9674 10.0063 16.6334 10.6332L15.1807 14.0867" stroke="white" stroke-linecap="round" stroke-linejoin="round"/>
</svg>
