<svg width="16" height="16" viewBox="0 0 16 16" fill="none" xmlns="http://www.w3.org/2000/svg">
<path fill-rule="evenodd" clip-rule="evenodd" d="M4.61873 12.4273H11.3809C11.7236 12.4273 12.0602 12.3371 12.357 12.1658C13.2906 11.6268 13.6105 10.4329 13.0715 9.49922L9.69037 3.64299C9.51904 3.34624 9.27262 3.09981 8.97586 2.92848C8.0422 2.38943 6.84833 2.70933 6.30928 3.64299L2.92819 9.49922C2.75685 9.79597 2.66666 10.1326 2.66666 10.4753C2.66666 11.5534 3.54063 12.4273 4.61873 12.4273ZM8.65319 7.68834C8.65319 8.05176 8.35858 8.34637 7.99516 8.34637C7.63174 8.34637 7.33713 8.05176 7.33713 7.68834V6.37228C7.33713 6.00886 7.63174 5.71425 7.99516 5.71425C8.35858 5.71425 8.65319 6.00886 8.65319 6.37228V7.68834ZM7.99516 10.3205C7.63193 10.3205 7.33713 10.0257 7.33713 9.66243C7.33713 9.29919 7.63193 9.0044 7.99516 9.0044C8.3584 9.0044 8.65319 9.29919 8.65319 9.66243C8.65319 10.0257 8.3584 10.3205 7.99516 10.3205Z" fill="#FF3535"/>
</svg>
